<svg id="ee9d074c-8fc3-4316-80c7-cb41484b035c" data-name="Layer 3" xmlns="http://www.w3.org/2000/svg" viewBox="0 0 100 100"><defs><style>.bf7132f2-f20f-4238-8ab8-3f53bca9be73,.fdfeca5d-fe74-4889-bad5-b88fdb5dd4ca{fill:none;stroke-miterlimit:10}.fdfeca5d-fe74-4889-bad5-b88fdb5dd4ca{stroke:#ff6c55;stroke-width:4px}.bf7132f2-f20f-4238-8ab8-3f53bca9be73{stroke:#fff;stroke-linecap:round;stroke-width:4.72px}</style></defs><rect class="fdfeca5d-fe74-4889-bad5-b88fdb5dd4ca" x="9.37" y="17.17" width="79.31" height="67.22" rx="7.76"/><path class="fdfeca5d-fe74-4889-bad5-b88fdb5dd4ca" d="M80.92 84.39H17.13a7.75 7.75 0 0 1-7.76-7.76v-51.7a7.75 7.75 0 0 1 7.76-7.76L49 17a7.75 7.75 0 0 1 7.76 7.76V36l31.9.17v40.46a7.76 7.76 0 0 1-7.74 7.76Z"/><path class="bf7132f2-f20f-4238-8ab8-3f53bca9be73" d="M30.45 44.29v25.33M38.29 50.62v12.67M67.6 50.62v12.67M45.27 53.88v7.34M52.69 53.88v7.34M59.89 53.88v7.34"/></svg>