<svg xmlns="http://www.w3.org/2000/svg" viewBox="0 0 100 100"><defs><style>.fbccad66-22bf-41c9-8485-bfde54d62921{fill:#fffa29}.f99a3890-2db8-40b1-bae2-413ce49790f7{fill:#1d1d1b}</style></defs><g id="ab20858e-8703-40e3-8988-825988bda232" data-name="Layer 1"><rect class="fbccad66-22bf-41c9-8485-bfde54d62921" x="8.44" y="8.29" width="38.79" height="38.79" rx="2.52" transform="rotate(90 27.835 27.685)"/><rect class="fbccad66-22bf-41c9-8485-bfde54d62921" x="52.96" y="8.29" width="38.79" height="38.79" rx="2.52" transform="rotate(90 72.35 27.68)"/><rect class="fbccad66-22bf-41c9-8485-bfde54d62921" x="8.44" y="52.71" width="38.79" height="38.79" rx="2.52" transform="rotate(-180 27.835 72.105)"/><rect class="fbccad66-22bf-41c9-8485-bfde54d62921" x="52.96" y="52.71" width="38.79" height="38.79" rx="2.52" transform="rotate(-180 72.35 72.105)"/></g><g id="b1cdf952-39d0-42ee-91b6-fc93ca68bfb9" data-name="Layer 4"><path d="M50.29 83q-1.14 0-2.31-.09a26 26 0 0 1-17.79-8.5 22.93 22.93 0 0 1-6.05-13.75l-.23.12A1.76 1.76 0 0 1 23 61a1.47 1.47 0 0 1-.77-2.7A6.34 6.34 0 0 1 26 57.18h.14a14.08 14.08 0 0 1 2 .21 1.47 1.47 0 0 1-.26 2.92h-.21l-.43-.07v.35c.08.69.16 1.35.29 2a20.75 20.75 0 0 0 10.99 14.34 24.27 24.27 0 0 0 26-1.84 20.28 20.28 0 0 0 8.2-13.48c.07-.44.1-.89.13-1.33v-.32l-.43.07h-.33a1.47 1.47 0 0 1-1.49-1.3 1.32 1.32 0 0 1 1-1.56 9.58 9.58 0 0 1 2.29-.29A6.6 6.6 0 0 1 77.66 58a1.45 1.45 0 0 1 .73 1.45A1.43 1.43 0 0 1 77 60.77a1.79 1.79 0 0 1-.8-.2l-.2-.07v.15c-.07.64-.14 1.25-.24 1.86a23.25 23.25 0 0 1-9.39 15.12A26.44 26.44 0 0 1 50.29 83Z"/><path class="f99a3890-2db8-40b1-bae2-413ce49790f7" d="M73.89 57.41a6.12 6.12 0 0 1 3.49 1 1 1 0 0 1-.38 1.86 1.28 1.28 0 0 1-.57-.15c-.25-.13-.49-.28-.77-.44-.11 1-.19 1.86-.34 2.74a22.69 22.69 0 0 1-9.19 14.81 25.87 25.87 0 0 1-15.84 5.27c-.75 0-1.51 0-2.27-.09a25.45 25.45 0 0 1-17.46-8.34 22.43 22.43 0 0 1-5.94-13.7v-.33l-.07-.16-.84.46a1.29 1.29 0 0 1-.63.18.92.92 0 0 1-.93-.87.91.91 0 0 1 .45-.92 5.84 5.84 0 0 1 3.47-1h.13a14 14 0 0 1 1.94.2 1 1 0 0 1-.18 1.93h-.15c-.31 0-.62-.1-1.08-.18.15 1.08.23 2.07.43 3a21.17 21.17 0 0 0 11.12 14.69 24.78 24.78 0 0 0 26.52-1.88 20.72 20.72 0 0 0 8.39-13.81c.1-.64.13-1.29.18-1.94v-.37l-1 .17h-.24a1 1 0 0 1-1-.88.84.84 0 0 1 .61-1 9.77 9.77 0 0 1 2.18-.27m0-1a10.72 10.72 0 0 0-2.41.3 1.81 1.81 0 0 0-1.36 2.14 2 2 0 0 0 2 1.71h.21c0 .34 0 .66-.1 1a19.85 19.85 0 0 1-8 13.16A23.7 23.7 0 0 1 50 79.35a23.45 23.45 0 0 1-11.28-2.86 20.27 20.27 0 0 1-10.66-14c-.11-.53-.18-1.07-.25-1.65h.07a2 2 0 0 0 .34-3.91 13.53 13.53 0 0 0-2.08-.22H26a6.78 6.78 0 0 0-4 1.21 1.94 1.94 0 0 0-.87 1.84A1.91 1.91 0 0 0 23 61.52a2.24 2.24 0 0 0 .67-.11 23.48 23.48 0 0 0 6.11 13.34 26.49 26.49 0 0 0 18.12 8.66c.79.06 1.58.09 2.35.09A26.87 26.87 0 0 0 66.67 78a23.73 23.73 0 0 0 9.59-15.44c.08-.46.14-.92.19-1.38a2.07 2.07 0 0 0 .5.06 2 2 0 0 0 1-3.66 7.16 7.16 0 0 0-4-1.2Z"/><path d="M35.75 42.25a2.41 2.41 0 0 1-1.69-.78 8 8 0 0 1-1.87-3.62 25.36 25.36 0 0 1-.72-9.16 17.35 17.35 0 0 1 1.27-5.53 8.43 8.43 0 0 1 1.34-2.11 2.17 2.17 0 0 1 1.62-.78 2.38 2.38 0 0 1 1.67.76 8 8 0 0 1 1.88 3.61 24.82 24.82 0 0 1 .85 6.79 21.12 21.12 0 0 1-1.38 7.9 8 8 0 0 1-1.34 2.12 2.19 2.19 0 0 1-1.63.8Z"/><path class="f99a3890-2db8-40b1-bae2-413ce49790f7" d="M35.7 20.77a1.9 1.9 0 0 1 1.31.61 7.51 7.51 0 0 1 1.76 3.4 24.49 24.49 0 0 1 .83 6.65 20.54 20.54 0 0 1-1.34 7.7 7.09 7.09 0 0 1-1.26 2 1.67 1.67 0 0 1-1.25.64 1.91 1.91 0 0 1-1.33-.63 7.31 7.31 0 0 1-1.74-3.41 24.71 24.71 0 0 1-.71-9 16.78 16.78 0 0 1 1.22-5.37 8 8 0 0 1 1.26-2 1.68 1.68 0 0 1 1.25-.62m0-1a2.68 2.68 0 0 0-2 .95A8.57 8.57 0 0 0 32.28 23 17.7 17.7 0 0 0 31 28.64a25.65 25.65 0 0 0 .71 9.36 8.32 8.32 0 0 0 2 3.85 2.91 2.91 0 0 0 2 .92 2.63 2.63 0 0 0 2-1 8.64 8.64 0 0 0 1.43-2.26 21.55 21.55 0 0 0 1.42-8.07 25.44 25.44 0 0 0-.87-6.95 8.53 8.53 0 0 0-2-3.83 2.88 2.88 0 0 0-2-.9Z"/><path d="M63.89 42.24a2.34 2.34 0 0 1-1.62-.71 7 7 0 0 1-1.7-3 23.21 23.21 0 0 1-1.07-7.5 20.93 20.93 0 0 1 1.36-7.84 8.22 8.22 0 0 1 1.35-2.15 2.12 2.12 0 0 1 1.63-.81 2.36 2.36 0 0 1 1.66.77 7.69 7.69 0 0 1 1.88 3.57A25.68 25.68 0 0 1 68 34.88 14.66 14.66 0 0 1 66.58 40a6.23 6.23 0 0 1-1.1 1.53 2.22 2.22 0 0 1-1.59.71Z"/><path class="f99a3890-2db8-40b1-bae2-413ce49790f7" d="M63.84 20.77a1.87 1.87 0 0 1 1.31.6 7.18 7.18 0 0 1 1.75 3.35 25.11 25.11 0 0 1 .61 10.1 14.13 14.13 0 0 1-1.38 4.93 5.86 5.86 0 0 1-1 1.41 1.73 1.73 0 0 1-1.23.58 1.88 1.88 0 0 1-1.28-.57 6.54 6.54 0 0 1-1.56-2.76 23 23 0 0 1-1-7.34 20.28 20.28 0 0 1 1.32-7.64 7.53 7.53 0 0 1 1.27-2 1.68 1.68 0 0 1 1.25-.63m0-1a2.65 2.65 0 0 0-2 1 8.73 8.73 0 0 0-1.5 2.2 21.41 21.41 0 0 0-1.4 8 23.62 23.62 0 0 0 1.1 7.67 7.54 7.54 0 0 0 1.82 3.16 2.85 2.85 0 0 0 2 .85 2.71 2.71 0 0 0 2-.88A7.08 7.08 0 0 0 67 40.22a15 15 0 0 0 1.48-5.28 26.06 26.06 0 0 0-.64-10.49 8.14 8.14 0 0 0-2-3.8 2.87 2.87 0 0 0-2-.88Z"/></g></svg>