<svg xmlns="http://www.w3.org/2000/svg" viewBox="0 0 100 100">
  <g id="Layer_2" data-name="Layer 2">
    <g>
      <path d="M70.65,45.6a6.09,6.09,0,0,0-5,2,10.13,10.13,0,0,0-2,5.43H76.05A8.38,8.38,0,0,0,75,47.53,4.89,4.89,0,0,0,70.65,45.6Z"/>
      <polygon points="33.68 37.54 33.34 37.54 31.95 44.93 28.55 55.26 38.54 55.26 35.08 44.87 33.68 37.54"/>
      <path d="M93.74,1.64H6.26a5,5,0,0,0-5,5V94.12a5,5,0,0,0,5,5H93.74a5,5,0,0,0,5-5V6.65A5,5,0,0,0,93.74,1.64ZM44.27,72.91,40.54,62.59H26.22L22.68,72.91H13.56l16.79-47h6.73l16.78,47ZM84,55.12c-.12,1.07-.28,2.18-.5,3.34h-20c.13,2.79.85,4.91,2.16,6.33s3.43,2.13,6.37,2.13a13.41,13.41,0,0,0,4.89-.84,13.65,13.65,0,0,0,3.3-1.69l2.87,5.66a17.18,17.18,0,0,1-5.43,2.7,23.88,23.88,0,0,1-7.3,1.1c-5.37,0-9.31-1.57-11.79-4.7S54.8,61.72,54.8,56.26q0-8.79,4.19-13.19t11.8-4.4a18.15,18.15,0,0,1,4.93.67A11.37,11.37,0,0,1,80,41.53a11,11,0,0,1,3,4.14,16.26,16.26,0,0,1,1.13,6.46A29,29,0,0,1,84,55.12Z"/>
    </g>
  </g>
</svg>
