<svg xmlns="http://www.w3.org/2000/svg" viewBox="0 0 100 100">
  <g id="Layer_2" data-name="Layer 2">
    <g>
      <polygon points="40.97 37.54 40.63 37.54 39.23 44.93 35.84 55.26 45.83 55.26 42.37 44.87 40.97 37.54"/>
      <path d="M93.7,1.64H6.22a5,5,0,0,0-5,5V94.12a5,5,0,0,0,5,5H93.7a5,5,0,0,0,5-5V6.65A5,5,0,0,0,93.7,1.64ZM51.56,72.91,47.83,62.59H33.51L30,72.91H20.85l16.79-47h6.73l16.79,47Zm22.85,0H65.75V39.6h8.66ZM74,33.44a6.18,6.18,0,0,1-4.1,1.3,5.64,5.64,0,0,1-4-1.3,4.17,4.17,0,0,1-1.43-3.23,4.37,4.37,0,0,1,1.43-3.3,5.49,5.49,0,0,1,4-1.37A6,6,0,0,1,74,26.91a4.23,4.23,0,0,1,1.56,3.3A4,4,0,0,1,74,33.44Z"/>
    </g>
  </g>
</svg>
