<svg xmlns="http://www.w3.org/2000/svg" viewBox="0 0 100 100">
  <g id="Layer_2" data-name="Layer 2">
    <g>
      <path d="M41.81,35a8.15,8.15,0,0,0-3-1.2,16.69,16.69,0,0,0-3.4-.34c-.89,0-1.73,0-2.53.1s-1.44.15-1.93.24V48.93a7.38,7.38,0,0,0,.8.13c.35,0,.73.08,1.13.1s.79,0,1.17,0h.83a18.43,18.43,0,0,0,3.56-.34,8.75,8.75,0,0,0,3.17-1.23,6.38,6.38,0,0,0,2.23-2.5,9,9,0,0,0,.83-4.19,7.35,7.35,0,0,0-.8-3.64A6.5,6.5,0,0,0,41.81,35Z"/>
      <path d="M93.74,1.64H6.26a5,5,0,0,0-5,5V94.12a5,5,0,0,0,5,5H93.74a5,5,0,0,0,5-5V6.65A5,5,0,0,0,93.74,1.64Zm-41,46.86a14.28,14.28,0,0,1-4.07,5,16.44,16.44,0,0,1-5.76,2.8,25.7,25.7,0,0,1-6.7.86H35.18l-1.54,0c-.53,0-1-.05-1.56-.1s-.88-.09-1.1-.13v16H21.85V26.74q2.8-.52,6.16-.83t6.7-.3a43.18,43.18,0,0,1,7,.57A17.49,17.49,0,0,1,48,28.44a13.28,13.28,0,0,1,4.56,4.73,15.56,15.56,0,0,1,1.77,7.9A16.37,16.37,0,0,1,52.77,48.5ZM77.05,71q-3.24,2.89-9.69,2.9a23.61,23.61,0,0,1-6.63-.9,20.19,20.19,0,0,1-5-2.1l2.39-6.46a23.64,23.64,0,0,0,4.07,1.69,16.41,16.41,0,0,0,5.2.84,5.72,5.72,0,0,0,3.09-.74,2.66,2.66,0,0,0,1.17-2.46,2.49,2.49,0,0,0-1.13-2.13,13.74,13.74,0,0,0-2.8-1.47c-1.11-.44-2.33-.9-3.67-1.36a13.66,13.66,0,0,1-3.66-1.94,10.58,10.58,0,0,1-2.8-3.13,9.46,9.46,0,0,1-1.13-4.89q0-4.94,2.93-7.53t8.46-2.6a27.32,27.32,0,0,1,6.86.8,19.42,19.42,0,0,1,4.8,1.8l-1.93,6.26q-1.53-.6-3.87-1.26A16.89,16.89,0,0,0,69,45.6q-3.86,0-3.86,3a2.22,2.22,0,0,0,1.13,1.93A14.93,14.93,0,0,0,69,51.89c1.11.43,2.33.88,3.66,1.37a15.74,15.74,0,0,1,3.67,1.9,10.07,10.07,0,0,1,2.8,3A9.17,9.17,0,0,1,80.28,63,10.17,10.17,0,0,1,77.05,71Z"/>
    </g>
  </g>
</svg>
