<svg xmlns="http://www.w3.org/2000/svg" viewBox="0 0 100 100">
  <g id="Layer_2" data-name="Layer 2">
    <g>
      <polygon points="48 43.21 48 27.35 34.43 43.21 48 43.21"/>
      <polygon points="67.92 25.75 54.76 24.43 67.92 39.79 67.92 25.75"/>
      <polygon points="20.5 46.75 40.62 71.01 28.81 47.15 20.5 46.75"/>
      <polygon points="28.08 30.43 19.73 42.71 28.08 43.11 28.08 30.43"/>
      <polygon points="32.08 25.75 32.08 39.79 45.24 24.43 32.08 25.75"/>
      <polygon points="48 76.9 48 47.21 33.3 47.21 48 76.9"/>
      <polygon points="52 27.35 52 43.21 65.57 43.21 52 27.35"/>
      <polygon points="79.5 46.75 71.19 47.15 59.38 71.01 79.5 46.75"/>
      <path d="M93.74,1.64H6.26a5,5,0,0,0-5,5V94.12a5,5,0,0,0,5,5H93.74a5,5,0,0,0,5-5V6.65A5,5,0,0,0,93.74,1.64ZM50,87,14.81,44.6,29.52,23,50,20.93,70.48,23,85.19,44.6Z"/>
      <polygon points="52 47.21 52 76.9 66.7 47.21 52 47.21"/>
      <polygon points="71.92 30.43 71.92 43.11 80.27 42.71 71.92 30.43"/>
    </g>
  </g>
</svg>
